<svg width="18" height="13" viewBox="0 0 18 13" fill="none" xmlns="http://www.w3.org/2000/svg">
<path d="M6.30372 9.03368C7.7256 7.74416 9.80854 7.74426 11.2305 9.03368C11.3019 9.10295 11.3436 9.20094 11.3457 9.30418C11.3477 9.40758 11.3101 9.50811 11.2412 9.58055L9.01465 11.9897C8.94945 12.0604 8.86031 12.1 8.76758 12.1001C8.67487 12.1001 8.58576 12.0603 8.52051 11.9897L6.29297 9.58055C6.22418 9.50806 6.18644 9.40758 6.18848 9.30418C6.1906 9.20096 6.23227 9.10291 6.30372 9.03368ZM3.20704 6.16161C6.34104 3.32442 11.1942 3.32434 14.3281 6.16161C14.3986 6.22801 14.4393 6.31906 14.4404 6.41454C14.4414 6.51024 14.4023 6.60248 14.333 6.67039L13.0166 7.96532C12.881 8.09749 12.6617 8.10073 12.5225 7.97215C11.4933 7.06514 10.154 6.56289 8.76563 6.56297C7.37825 6.5636 6.04013 7.0658 5.01172 7.97215C4.87251 8.10057 4.65317 8.09744 4.51758 7.96532L3.20118 6.67039C3.13206 6.60271 3.09392 6.51094 3.09473 6.41551C3.09566 6.31974 3.13624 6.22814 3.20704 6.16161ZM0.110357 3.2202C4.94965 -1.07345 12.5845 -1.07335 17.4238 3.2202C17.4939 3.28399 17.5336 3.37142 17.5342 3.46239C17.5347 3.55322 17.4959 3.64011 17.4268 3.70457L16.0996 4.94481C15.9629 5.07201 15.7414 5.07388 15.6025 4.94871C13.7588 3.32585 11.3117 2.4205 8.76758 2.42039C6.22338 2.42043 3.77659 3.32585 1.93262 4.94871C1.79386 5.0742 1.57123 5.07225 1.43458 4.94481L0.107427 3.70457C0.0384087 3.64009 -0.00053043 3.55316 5.48363e-06 3.46239C0.000651543 3.37147 0.0403275 3.28393 0.110357 3.2202Z" fill="black"/>
</svg>
