<svg width="43" height="13" viewBox="0 0 43 13" fill="none" xmlns="http://www.w3.org/2000/svg">
<path d="M3.12988 12.2188V2.34912H2.98047L0.000488281 4.44922V2.44043L3.12988 0.240723H5.26318V12.2188H3.12988ZM12.9248 12.4595C12.0505 12.4595 11.284 12.3128 10.6255 12.0195C9.97249 11.7262 9.45508 11.3195 9.07324 10.7993C8.69694 10.2736 8.48112 9.66764 8.42578 8.98145L8.41748 8.88184H10.4595L10.4678 8.97314C10.5065 9.31071 10.631 9.6123 10.8413 9.87793C11.0516 10.138 11.3338 10.3428 11.688 10.4922C12.0422 10.6361 12.4544 10.708 12.9248 10.708C13.3841 10.708 13.7853 10.6278 14.1284 10.4673C14.4771 10.3068 14.7482 10.0854 14.9419 9.80322C15.1356 9.521 15.2324 9.1945 15.2324 8.82373V8.80713C15.2324 8.17627 15.0138 7.69206 14.5767 7.35449C14.1395 7.01693 13.5363 6.84814 12.7671 6.84814H11.3477V5.25439H12.7256C13.1628 5.25439 13.5474 5.17692 13.8794 5.02197C14.2114 4.86702 14.4688 4.65674 14.6514 4.39111C14.834 4.11995 14.9253 3.81006 14.9253 3.46143V3.44482C14.9253 3.07406 14.8451 2.75863 14.6846 2.49854C14.5296 2.23844 14.3 2.03923 13.9956 1.90088C13.6968 1.76253 13.3343 1.69336 12.9082 1.69336C12.4876 1.69336 12.1141 1.7653 11.7876 1.90918C11.4666 2.05306 11.2093 2.25781 11.0156 2.52344C10.8219 2.78353 10.7057 3.09066 10.667 3.44482L10.6587 3.52783H8.6748L8.68311 3.42822C8.74398 2.73649 8.95426 2.13607 9.31396 1.62695C9.6792 1.1123 10.1662 0.713867 10.7749 0.431641C11.3892 0.14388 12.1003 0 12.9082 0C13.7327 0 14.4494 0.135579 15.0581 0.406738C15.6668 0.672363 16.1372 1.04036 16.4692 1.51074C16.8068 1.98112 16.9756 2.53174 16.9756 3.1626V3.1792C16.9756 3.67171 16.8649 4.10889 16.6436 4.49072C16.4277 4.86702 16.1289 5.17969 15.7471 5.42871C15.3708 5.67773 14.9419 5.85205 14.4604 5.95166V5.99316C15.3459 6.07617 16.057 6.36947 16.5938 6.87305C17.1305 7.37109 17.3989 8.03516 17.3989 8.86523V8.88184C17.3989 9.5791 17.2108 10.1989 16.8345 10.7412C16.4582 11.278 15.9325 11.6986 15.2573 12.0029C14.5877 12.3073 13.8102 12.4595 12.9248 12.4595ZM21.2422 10.6084C20.8659 10.6084 20.5505 10.4839 20.2959 10.2349C20.0469 9.98031 19.9224 9.67041 19.9224 9.30518C19.9224 8.93441 20.0469 8.62451 20.2959 8.37549C20.5505 8.12093 20.8659 7.99365 21.2422 7.99365C21.624 7.99365 21.9395 8.12093 22.1885 8.37549C22.4375 8.62451 22.562 8.93441 22.562 9.30518C22.562 9.67041 22.4375 9.98031 22.1885 10.2349C21.9395 10.4839 21.624 10.6084 21.2422 10.6084ZM21.2422 4.44922C20.8659 4.44922 20.5505 4.32471 20.2959 4.07568C20.0469 3.82113 19.9224 3.51123 19.9224 3.146C19.9224 2.77523 20.0469 2.46533 20.2959 2.21631C20.5505 1.96175 20.8659 1.83447 21.2422 1.83447C21.624 1.83447 21.9395 1.96175 22.1885 2.21631C22.4375 2.46533 22.562 2.77523 22.562 3.146C22.562 3.51123 22.4375 3.82113 22.1885 4.07568C21.9395 4.32471 21.624 4.44922 21.2422 4.44922ZM28.2314 12.2188V2.34912H28.082L25.1021 4.44922V2.44043L28.2314 0.240723H30.3647V12.2188H28.2314ZM38.0264 12.4595C37.152 12.4595 36.3856 12.3128 35.7271 12.0195C35.0741 11.7262 34.5566 11.3195 34.1748 10.7993C33.7985 10.2736 33.5827 9.66764 33.5273 8.98145L33.519 8.88184H35.561L35.5693 8.97314C35.6081 9.31071 35.7326 9.6123 35.9429 9.87793C36.1532 10.138 36.4354 10.3428 36.7896 10.4922C37.1437 10.6361 37.556 10.708 38.0264 10.708C38.4857 10.708 38.8869 10.6278 39.23 10.4673C39.5786 10.3068 39.8498 10.0854 40.0435 9.80322C40.2371 9.521 40.334 9.1945 40.334 8.82373V8.80713C40.334 8.17627 40.1154 7.69206 39.6782 7.35449C39.241 7.01693 38.6379 6.84814 37.8687 6.84814H36.4492V5.25439H37.8271C38.2643 5.25439 38.6489 5.17692 38.981 5.02197C39.313 4.86702 39.5703 4.65674 39.7529 4.39111C39.9355 4.11995 40.0269 3.81006 40.0269 3.46143V3.44482C40.0269 3.07406 39.9466 2.75863 39.7861 2.49854C39.6312 2.23844 39.4015 2.03923 39.0972 1.90088C38.7983 1.76253 38.4359 1.69336 38.0098 1.69336C37.5892 1.69336 37.2157 1.7653 36.8892 1.90918C36.5682 2.05306 36.3109 2.25781 36.1172 2.52344C35.9235 2.78353 35.8073 3.09066 35.7686 3.44482L35.7603 3.52783H33.7764L33.7847 3.42822C33.8455 2.73649 34.0558 2.13607 34.4155 1.62695C34.7808 1.1123 35.2677 0.713867 35.8765 0.431641C36.4907 0.14388 37.2018 0 38.0098 0C38.8343 0 39.5509 0.135579 40.1597 0.406738C40.7684 0.672363 41.2388 1.04036 41.5708 1.51074C41.9084 1.98112 42.0771 2.53174 42.0771 3.1626V3.1792C42.0771 3.67171 41.9665 4.10889 41.7451 4.49072C41.5293 4.86702 41.2305 5.17969 40.8486 5.42871C40.4723 5.67773 40.0435 5.85205 39.562 5.95166V5.99316C40.4474 6.07617 41.1585 6.36947 41.6953 6.87305C42.2321 7.37109 42.5005 8.03516 42.5005 8.86523V8.88184C42.5005 9.5791 42.3123 10.1989 41.936 10.7412C41.5597 11.278 41.034 11.6986 40.3589 12.0029C39.6893 12.3073 38.9118 12.4595 38.0264 12.4595Z" fill="black"/>
</svg>
