<svg width="20" height="12" viewBox="0 0 20 12" fill="none" xmlns="http://www.w3.org/2000/svg">
<path d="M2.18262 7.40039C2.78496 7.40063 3.27334 7.91492 3.27344 8.5498V10.8496C3.27344 11.4846 2.78502 11.9998 2.18262 12H1.09082C0.488355 11.9998 0 11.4846 0 10.8496V8.5498C0.000100156 7.91487 0.488417 7.40055 1.09082 7.40039H2.18262ZM7.60352 5C8.20611 5 8.69434 5.52266 8.69434 6.16699V10.833C8.69434 11.4773 8.20611 12 7.60352 12H6.5127C5.9101 12 5.4209 11.4773 5.4209 10.833V6.16699C5.4209 5.52266 5.9101 5 6.5127 5H7.60352ZM13.127 2.40039C13.7295 2.40039 14.2186 2.91564 14.2188 3.55176V10.8477C14.2188 11.4839 13.7295 12 13.127 12H12.0361C11.4335 12 10.9453 11.4839 10.9453 10.8477V3.55176C10.9454 2.91564 11.4336 2.40039 12.0361 2.40039H13.127ZM18.5488 0C19.1513 0.000122464 19.6396 0.503755 19.6396 1.125V10.875C19.6396 11.4962 19.1513 11.9999 18.5488 12H17.457C16.8547 11.9997 16.3662 11.4962 16.3662 10.875V1.125C16.3662 0.503846 16.8547 0.000268951 17.457 0H18.5488Z" fill="black"/>
</svg>
