<svg width="93" height="52" viewBox="0 0 93 52" fill="none" xmlns="http://www.w3.org/2000/svg">
<path d="M48.0777 3.55668H77.3172L87.7049 22.2177L58.1365 29.9778L48.0777 3.55668Z" fill="white"/>
<path d="M44.3093 3.55668H15.0694L4.68167 22.2177L34.2504 29.9778L44.3093 3.55668Z" fill="white"/>
<path d="M19.2159 28.1258L21.425 40.1322L45.8249 49.6458L70.4891 41.0265L73.17 28.1258L57.1348 32.7523L46.018 6.73255L35.2514 31.7242L19.2159 28.1258Z" fill="#E8EF5B"/>
<path d="M78.1961 0.000468029L78.3322 0.00528981C79.0108 0.0503396 79.6247 0.42941 79.9603 1.01893L92.0357 22.2292C92.3422 22.7678 92.3776 23.416 92.132 23.9841C91.8863 24.5524 91.3872 24.9763 90.7804 25.1319L57.5516 33.653C56.5541 33.9087 55.5205 33.3847 55.1521 32.4364L44.1282 4.05781C44.1191 4.03434 44.1126 4.00986 44.1045 3.98628H14.097C12.9796 3.98628 12.0737 3.09399 12.0737 1.99337C12.0737 0.892751 12.9796 0.000468029 14.097 0.000468029H78.1961ZM58.284 29.346L87.2233 21.9252L77.0106 3.98628H48.433L58.284 29.346Z" fill="black"/>
<path d="M12.4438 0.845652C13.0332 0.0193259 14.1741 -0.249683 15.0877 0.254924C16.0622 0.793215 16.409 2.0079 15.8626 2.96784L5.06985 21.9252L34.0091 29.346L44.3865 2.63293L44.4703 2.44656C44.9317 1.54454 46.0207 1.11578 46.999 1.48451C48.0426 1.87783 48.5649 3.02987 48.1656 4.05781L37.1417 32.4365C36.7733 33.3847 35.7397 33.9088 34.7422 33.653L1.51344 25.1319C0.906603 24.9763 0.407463 24.5524 0.161812 23.9841C-0.0837808 23.416 -0.0483515 22.7678 0.258157 22.2292L12.3335 1.01895L12.4438 0.845652Z" fill="black"/>
<path d="M71.9427 27.5433C72.2412 26.5769 73.2404 25.9715 74.2683 26.1707C75.3646 26.3832 76.0784 27.4304 75.8629 28.5102L73.3753 40.9676C73.2381 41.6548 72.7444 42.2205 72.0754 42.4578L46.5096 51.5208C46.0637 51.6788 45.5758 51.6775 45.1307 51.5174L19.944 42.4551C19.2793 42.2159 18.7898 41.6516 18.6532 40.9676L16.1656 28.5102L16.1356 28.3087C16.0403 27.303 16.7323 26.3699 17.7602 26.1707C18.7881 25.9717 19.7873 26.577 20.0858 27.5433L20.1353 27.7414L22.403 39.0964L45.8303 47.5254L69.6255 39.0902L71.8924 27.7414L71.9427 27.5433Z" fill="black"/>
</svg>
