<svg width="107" height="122" viewBox="0 0 107 122" fill="none" xmlns="http://www.w3.org/2000/svg">
<path d="M57.9485 61.3023C61.4087 62.0488 70.4666 63.7529 76.2789 62.4008C76.9938 62.2389 77.6515 62.7952 77.58 63.4994C77.2511 67.0062 75.7284 75.3438 68.4506 75.7875C60.3149 76.2804 57.2336 66.9358 56.6402 62.4501C56.5687 61.746 57.2336 61.1685 57.9414 61.3023H57.9485Z" fill="#FFCC40"/>
<path d="M18.5687 44.1293C17.8347 45.5938 17.1896 47.1102 16.6407 48.6719C15.4922 51.9391 14.7646 55.4042 14.5254 59.0062C14.4677 59.8743 14.4384 60.7504 14.4384 61.6336H10.3919C10.3919 54.7081 12.0323 48.1674 14.9404 42.3647L18.5687 44.1293Z" fill="black"/>
<path d="M94.7019 61.6055C94.7019 39.7637 76.7345 22.0652 54.56 22.065C53.1463 22.065 51.7553 22.1376 50.3756 22.273C49.882 22.3214 49.3899 22.3778 48.8987 22.4419L48.633 20.4665L48.3674 18.4911C50.3919 18.2272 52.4474 18.0792 54.56 18.0792C78.9692 18.0794 98.7484 37.5625 98.7484 61.6055C98.7484 65.0914 98.3324 68.4815 97.5468 71.7302C96.0956 77.7309 93.383 83.2494 89.7005 87.999C84.3308 94.9248 76.8987 100.216 68.3077 102.983C63.9807 104.377 59.3596 105.131 54.56 105.131C50.5516 105.131 46.6643 104.603 42.9684 103.615C37.5475 102.166 32.5385 99.7269 28.1634 96.5102L30.5833 93.3159C31.2013 93.7704 31.8333 94.2077 32.4785 94.6273C38.8088 98.7439 46.4053 101.145 54.56 101.145C76.7274 101.145 94.7017 83.4468 94.7019 61.6055Z" fill="black"/>
<path d="M73.2608 99.9597C70.7241 113.17 61.3136 121.205 50.7537 121.158C46.2994 121.138 43.08 119.931 40.9501 117.795C38.8441 115.682 38.0938 112.951 37.9481 110.459C37.8024 107.967 38.2464 105.522 38.7286 103.71C38.9722 102.795 39.2332 102.013 39.4519 101.433C39.5609 101.144 39.6636 100.894 39.7528 100.695C39.7967 100.597 39.8435 100.497 39.8917 100.405C39.9087 100.372 40.0197 100.152 40.1954 99.9446L43.3001 102.501C43.399 102.384 43.4566 102.286 43.4642 102.274C43.4739 102.258 43.4807 102.246 43.4845 102.239C43.4884 102.232 43.4914 102.226 43.4914 102.226C43.4914 102.226 43.4877 102.234 43.4817 102.246C43.4746 102.261 43.4648 102.281 43.453 102.307C43.4045 102.415 43.3331 102.588 43.2457 102.82C43.1618 103.042 43.0672 103.31 42.9684 103.615C42.8622 103.943 42.7511 104.315 42.6432 104.721C42.2213 106.306 41.8758 108.305 41.9883 110.23C42.1009 112.156 42.6568 113.818 43.8377 115.002C44.9949 116.163 47.0434 117.156 50.7711 117.172L51.1565 117.17C58.3081 117.031 65.2666 112.12 68.3077 102.983C68.7019 101.799 69.0303 100.544 69.2848 99.2184L73.2608 99.9597Z" fill="black"/>
<path d="M7.38979 61.6264C9.53275 60.1114 11.9904 59.2432 14.5254 59.0062C21.1929 58.3827 28.3952 62.1258 31.812 69.9501L32.0312 70.47L32.0982 70.6632C32.3809 71.6342 31.8764 72.6774 30.9037 73.0605C29.931 73.4436 28.8353 73.0308 28.3603 72.1356L28.2737 71.9499L28.0964 71.529C24.3494 62.9298 15.4735 61.0787 10.0107 64.6859L9.74885 64.8647C4.77489 68.3801 3.3239 74.5141 4.35351 80.8506C5.38984 87.2282 8.84583 93.096 12.6986 95.6193L12.9688 95.7912C15.7807 97.5366 19.3118 98.289 22.3708 97.7958C25.4474 97.2998 27.9599 95.5839 29.0291 92.3404C29.3742 91.2936 30.5153 90.7201 31.5781 91.0599C32.6408 91.3998 33.2223 92.5239 32.8774 93.5707C32.757 93.9357 32.6238 94.2878 32.4785 94.6273C30.6773 98.8342 27.0176 101.086 23.0243 101.729C18.79 102.412 14.1045 101.325 10.4596 98.9394C5.39769 95.6247 1.51454 88.5982 0.357959 81.4805C-0.787154 74.4332 0.650148 66.6058 7.0798 61.8506L7.38979 61.6264Z" fill="black"/>
<path d="M20.5506 53.2182C19.8857 53.2182 19.2495 52.9154 18.8634 52.3309C18.7398 52.1482 17.8185 50.7744 16.6407 48.6719C13.7322 43.4798 9.25943 33.8439 11.3712 26.7266C12.2219 23.8535 14.002 21.6565 16.6829 20.1847C16.9403 16.5441 18.1056 6.33334 23.3674 2.00962C25.3334 0.375907 27.6568 -0.257863 30.2448 0.0942308C32.4968 0.418157 34.2984 1.51669 35.5066 3.31941C36.4288 4.69962 36.8363 7.31216 36.1714 11.3049C38.0231 7.07978 40.8899 4.17852 43.4064 3.38279C45.7513 2.63635 48.2678 2.58706 50.4768 4.01656C56.8779 8.12856 54.1446 15.2867 50.3756 22.273C49.6939 23.5365 48.9783 24.7944 48.2768 26.0276L48.2677 26.0436C46.9666 28.3322 45.7298 30.5081 44.779 32.5362C41.3617 39.9161 41.4832 43.8666 41.5047 43.8877C41.5547 44.9862 40.6968 45.9228 39.5816 45.965C38.4449 46.0143 37.5155 45.1975 37.444 44.1201C37.4225 43.6271 37.251 39.1696 41.0757 30.8743C42.0527 28.742 43.3752 26.4191 44.6423 24.1934C44.6641 24.1552 44.6858 24.117 44.7075 24.0789C49.476 15.6709 52.3213 9.96695 48.2177 7.35442C47.0095 6.58684 45.8942 6.39671 44.7289 6.76993C40.7469 8.05156 37.2581 15.1568 36.2358 17.7694C35.8569 18.7763 34.7416 19.2904 33.7193 18.9594C32.697 18.6285 32.1036 17.5792 32.3896 16.5511C32.9615 14.4456 34.0053 8.37549 32.0821 5.50239C31.5102 4.66441 30.731 4.19261 29.6157 4.03064C28.193 3.81939 27.0063 4.15035 25.9196 5.05876C21.9089 8.35436 20.7293 18.0722 20.6078 21.5297C20.5864 22.2973 20.1074 22.9803 19.3996 23.2831C17.1905 24.2408 15.8179 25.7337 15.2031 27.8392C13.187 34.6628 19.564 46.2467 22.1735 50.1268C22.7883 51.0352 22.5309 52.2746 21.6015 52.8802C21.2941 53.1125 20.9152 53.2041 20.5363 53.2041L20.5506 53.2182Z" fill="black"/>
<path d="M57.9485 61.3023C61.4087 62.0488 70.4666 63.7529 76.2789 62.4008C76.9938 62.2389 77.6515 62.7952 77.58 63.4994C77.2511 67.0062 75.7284 75.3438 68.4506 75.7875C60.3149 76.2804 57.2336 66.9358 56.6402 62.4501C56.5687 61.746 57.2336 61.1685 57.9414 61.3023H57.9485Z" fill="black"/>
<path d="M87.548 55.5593C87.2344 57.3687 85.4907 58.5852 83.6537 58.2764C81.8167 57.9674 80.5817 56.2499 80.8953 54.4405L87.548 55.5593ZM80.246 42.0642C81.7343 40.9595 83.8503 41.2523 84.9718 42.7182L82.277 44.7187C84.9719 42.7184 84.9718 42.7182 84.9718 42.7182L84.976 42.7237L84.9795 42.7292L84.9893 42.7409C84.9957 42.7494 85.0024 42.7593 85.0102 42.7698C85.026 42.7911 85.0449 42.8166 85.0661 42.8461C85.1084 42.9051 85.1612 42.9809 85.2225 43.0724C85.345 43.2554 85.5027 43.5035 85.6791 43.8137C86.0313 44.4332 86.4643 45.3081 86.8499 46.4111C87.6243 48.6262 88.2059 51.7647 87.548 55.5593L80.8953 54.4405C81.3313 51.9257 80.94 49.9233 80.4687 48.5752C80.2315 47.8968 79.9741 47.384 79.7908 47.0616C79.6997 46.9013 79.6277 46.7904 79.5884 46.7315C79.5742 46.7104 79.5633 46.6947 79.5584 46.6876L79.5611 46.691L79.5695 46.702L79.5751 46.7102L79.5786 46.7144C79.5718 46.7055 79.5651 46.6965 79.5584 46.6876C78.4649 45.2234 78.7684 43.1611 80.246 42.0642Z" fill="black"/>
<path d="M95.3939 69.5375C95.3939 69.5375 95.4695 69.4564 96.7461 68.0556C98.0974 66.5726 98.0986 66.5736 98.0986 66.5736L98.1035 66.5777L98.1139 66.5867C98.1223 66.5942 98.1333 66.6048 98.1475 66.6176C98.1759 66.6432 98.2159 66.6793 98.2661 66.7256C98.3667 66.8181 98.5096 66.9513 98.6864 67.1217C99.0398 67.4621 99.5316 67.953 100.101 68.5665C101.234 69.7876 102.701 71.5244 103.985 73.557C106.457 77.4668 108.747 83.3017 105.093 88.4866C103.396 90.8942 101.319 92.313 99.1228 93.0047C96.9608 93.6855 94.8099 93.6233 92.9734 93.2894C91.1362 92.9553 89.5321 92.3346 88.4012 91.8095C87.8314 91.5449 87.3701 91.2989 87.0454 91.1156C86.8827 91.0239 86.7534 90.9473 86.6614 90.8915C86.6154 90.8635 86.5782 90.8411 86.5511 90.8241C86.5377 90.8157 86.5269 90.8083 86.5183 90.8027L86.5064 90.7959L86.5022 90.7931L88.7182 87.4579L88.7251 87.462C88.7362 87.4689 88.7565 87.4817 88.7852 87.4991C88.8426 87.534 88.9344 87.5882 89.0568 87.6573C89.2204 87.7496 89.4377 87.8675 89.7005 87.999C89.8317 88.0647 89.9742 88.1337 90.127 88.2047C91.0544 88.6353 92.3165 89.1173 93.7079 89.3703C95.1 89.6234 96.5413 89.6329 97.8905 89.208C99.2055 88.7939 100.56 87.9291 101.769 86.2138C103.926 83.1528 102.874 79.34 100.551 75.6641C99.5889 74.1429 98.491 72.7859 97.5468 71.7302C97.3984 71.5643 97.2538 71.4058 97.1142 71.2553C96.6029 70.7043 96.1641 70.2675 95.8568 69.9714C95.7033 69.8236 95.5832 69.7112 95.5035 69.6379C95.4637 69.6013 95.4341 69.5741 95.4156 69.5575C95.4065 69.5493 95.3967 69.5403 95.3967 69.5403L95.3939 69.5375Z" fill="black"/>
<path d="M50.783 36.2052C50.7515 36.2056 50.7214 36.206 50.6928 36.2063C49.7559 36.2187 50.3489 36.2114 50.6615 36.2076C50.7497 36.2066 50.8186 36.2058 50.8186 36.2058C50.8476 36.2062 50.8873 36.2067 50.9366 36.2079C51.035 36.2103 51.173 36.2143 51.3464 36.223C51.6932 36.2405 52.1834 36.2753 52.7832 36.3427C53.9795 36.4772 55.6315 36.745 57.4657 37.2834C61.1077 38.3526 65.664 40.5477 68.6586 45.0742C69.0468 45.661 69.0937 46.4058 68.7822 47.0355C68.4706 47.6651 67.8464 48.0877 67.138 48.1482L67.1261 48.1488C67.114 48.15 67.0938 48.1516 67.0661 48.1543C67.0101 48.1599 66.9232 48.1693 66.8078 48.1825C66.5765 48.209 66.2315 48.2522 65.794 48.3173C64.9179 48.4477 63.6765 48.665 62.2355 49.0119C59.3288 49.7116 55.7241 50.9104 52.6631 52.8966L52.4844 53.0004C51.5755 53.468 50.4363 53.1908 49.86 52.3293C49.2453 51.4102 49.5036 50.1737 50.4367 49.5682L50.776 49.3523C54.2943 47.1482 58.2386 45.8711 61.2749 45.1402C61.9246 44.9838 62.5376 44.8512 63.102 44.7393C61.0459 42.882 58.5731 41.768 56.3096 41.1035C54.7527 40.6465 53.3424 40.4168 52.3245 40.3024C51.8174 40.2454 51.412 40.2177 51.1404 40.204C51.0048 40.1972 50.9024 40.1939 50.8381 40.1923C50.8063 40.1916 50.7838 40.1911 50.7711 40.191H50.762C49.645 40.1906 48.7402 39.2984 48.7402 38.1981C48.7402 37.1311 49.5915 36.2599 50.6615 36.2076C50.6719 36.2071 50.6824 36.2067 50.6928 36.2063C50.7163 36.2056 50.7398 36.2052 50.7634 36.2052V37.7401C50.7635 36.2465 50.7634 36.2052 50.7634 36.2052H50.783Z" fill="black"/>
<path fill-rule="evenodd" clip-rule="evenodd" d="M16.6407 48.6719C15.4922 51.9391 14.7646 55.4042 14.5254 59.0062C21.1929 58.3827 28.3952 62.1258 31.812 69.9501L32.0312 70.47L32.0982 70.6632C32.3809 71.6342 31.8764 72.6774 30.9037 73.0605C29.931 73.4436 28.8353 73.0308 28.3603 72.1356L28.2737 71.9499L28.0964 71.529C24.3494 62.9298 15.4735 61.0787 10.0107 64.6859L9.74885 64.8647C4.77489 68.3801 3.3239 74.5141 4.35351 80.8506C5.38984 87.2282 8.84583 93.096 12.6986 95.6193L12.9688 95.7912C15.7807 97.5366 19.3118 98.289 22.3708 97.7958C25.4474 97.2998 27.9599 95.5839 29.0291 92.3404C29.3742 91.2936 30.5153 90.7201 31.5781 91.0599C32.6408 91.3998 33.2223 92.5239 32.8774 93.5707C32.757 93.9357 32.6238 94.2878 32.4785 94.6273C38.8088 98.7439 46.4053 101.145 54.56 101.145C76.7274 101.145 94.7017 83.4468 94.7019 61.6055C94.7019 39.7637 76.7345 22.0652 54.56 22.065C53.1463 22.065 51.7553 22.1376 50.3756 22.273C49.6939 23.5365 48.9783 24.7944 48.2768 26.0276L48.2677 26.0436C46.9666 28.3322 45.7298 30.5081 44.779 32.5362C41.3617 39.9161 41.4832 43.8666 41.5047 43.8877C41.5547 44.9862 40.6968 45.9228 39.5816 45.965C38.4449 46.0143 37.5155 45.1975 37.444 44.1201C37.4225 43.6271 37.251 39.1696 41.0757 30.8743C42.0527 28.742 43.3752 26.4191 44.6423 24.1934L44.7075 24.0789C49.476 15.6709 52.3213 9.96695 48.2177 7.35442C47.0095 6.58684 45.8942 6.39671 44.7289 6.76993C40.7469 8.05156 37.2581 15.1568 36.2358 17.7694C35.8569 18.7763 34.7416 19.2904 33.7193 18.9594C32.697 18.6285 32.1036 17.5792 32.3896 16.5511C32.9615 14.4456 34.0053 8.37549 32.0821 5.50239C31.5102 4.66441 30.731 4.19261 29.6157 4.03064C28.193 3.81939 27.0063 4.15035 25.9196 5.05876C21.9089 8.35436 20.7293 18.0722 20.6078 21.5297C20.5864 22.2973 20.1074 22.9803 19.3996 23.2831C17.1905 24.2408 15.8179 25.7337 15.2031 27.8392C13.187 34.6628 19.564 46.2467 22.1735 50.1268C22.7883 51.0352 22.5309 52.2746 21.6015 52.8802C21.2941 53.1125 20.9152 53.2041 20.5363 53.2041L20.5506 53.2182C19.8857 53.2182 19.2495 52.9154 18.8634 52.3309C18.7398 52.1482 17.8185 50.7744 16.6407 48.6719ZM76.2789 62.4008C70.4666 63.7529 61.4087 62.0488 57.9485 61.3023H57.9414C57.2336 61.1685 56.5687 61.746 56.6402 62.4501C57.2336 66.9358 60.3149 76.2804 68.4506 75.7875C75.7284 75.3438 77.2511 67.0062 77.58 63.4994C77.6515 62.7952 76.9938 62.2389 76.2789 62.4008ZM87.548 55.5593C87.2344 57.3687 85.4907 58.5852 83.6537 58.2764C81.8167 57.9674 80.5817 56.2499 80.8953 54.4405C81.3313 51.9257 80.94 49.9233 80.4687 48.5752C80.2315 47.8968 79.9741 47.384 79.7908 47.0616C79.6997 46.9013 79.6277 46.7904 79.5884 46.7315L79.5584 46.6876C78.4649 45.2234 78.7684 43.1611 80.246 42.0642C81.7343 40.9595 83.8503 41.2523 84.9718 42.7182L84.976 42.7237L84.9795 42.7292L84.9893 42.7409L85.0102 42.7698L85.0661 42.8461C85.1084 42.9051 85.1612 42.9809 85.2225 43.0724C85.345 43.2554 85.5027 43.5035 85.6791 43.8137C86.0313 44.4332 86.4643 45.3081 86.8499 46.4111C87.6243 48.6262 88.2059 51.7647 87.548 55.5593ZM50.7634 36.2052C50.7963 36.2048 50.8186 36.2058 50.8186 36.2058L50.9366 36.2079C51.035 36.2103 51.173 36.2143 51.3464 36.223C51.6932 36.2405 52.1834 36.2753 52.7832 36.3427C53.9795 36.4772 55.6315 36.745 57.4657 37.2834C61.1077 38.3526 65.664 40.5477 68.6586 45.0742C69.0468 45.661 69.0937 46.4058 68.7822 47.0355C68.4706 47.6651 67.8464 48.0877 67.138 48.1482L67.1261 48.1488L67.0661 48.1543C67.0101 48.1599 66.9232 48.1693 66.8078 48.1825C66.5765 48.209 66.2315 48.2522 65.794 48.3173C64.9179 48.4477 63.6765 48.665 62.2355 49.0119C59.3288 49.7116 55.7241 50.9104 52.6631 52.8966L52.4844 53.0004C51.5755 53.468 50.4363 53.1908 49.86 52.3293C49.2453 51.4102 49.5036 50.1737 50.4367 49.5682L50.776 49.3523C54.2943 47.1482 58.2386 45.8711 61.2749 45.1402C61.9246 44.9838 62.5376 44.8512 63.102 44.7393C61.0459 42.882 58.5731 41.768 56.3096 41.1035C54.7527 40.6465 53.3424 40.4168 52.3245 40.3024C51.8174 40.2454 51.412 40.2177 51.1404 40.204C51.0048 40.1972 50.9024 40.1939 50.8381 40.1923L50.7711 40.191H50.762C49.645 40.1906 48.7402 39.2984 48.7402 38.1981C48.7402 37.1311 49.5915 36.2599 50.6615 36.2076C50.3489 36.2114 49.7559 36.2187 50.6928 36.2063C50.7163 36.2056 50.7398 36.2052 50.7634 36.2052Z" fill="#FFB115"/>
<path d="M89.7005 87.999C89.8317 88.0647 89.9742 88.1337 90.127 88.2047C91.0544 88.6353 92.3165 89.1173 93.7079 89.3703C95.1 89.6234 96.5413 89.6329 97.8905 89.208C99.2055 88.7939 100.56 87.9291 101.769 86.2138C103.926 83.1528 102.874 79.34 100.551 75.6641C99.5889 74.1429 98.491 72.7859 97.5468 71.7302C96.0956 77.7309 93.383 83.2494 89.7005 87.999Z" fill="#FFB115"/>
<path d="M42.6432 104.721C42.2213 106.306 41.8758 108.305 41.9883 110.23C42.1009 112.156 42.6568 113.818 43.8377 115.002C44.9949 116.163 47.0434 117.156 50.7711 117.172L51.1565 117.17C58.3081 117.031 65.2666 112.12 68.3077 102.983C63.9807 104.377 59.3596 105.131 54.56 105.131C50.5516 105.131 46.6643 104.603 42.9684 103.615C42.8622 103.943 42.7511 104.315 42.6432 104.721Z" fill="#FFB115"/>
</svg>
